*********** ****    ****      ***      ******** *********** ****    *** **********
           *+*     +*+*+* *+*+*+   *+* *+*   *+*    *+*    *+*     *+*+*   *+* *+*        
           +*+     +*+ +*+*+ +*+  +*+   +*+  +*+           +*+     *+*+*+  +*+ +*+        
           +$+     +$+  +*+  +$+ +$++*++$++* *$*           +$+     +$+ +*+ +$+ +$++*++$  
           +$+     +$+       +$+ +$+     +$+ +$+   +$+$    +$+     +$+  +$+$+$ +$+        
           $+$     $+$       $+$ $+$     $+$ $+$    $+$    $+$     $+$   $+$+$ $+$        
       $$$$$$$$$$$ $$$       $$$ $$$     $$$  $$$$$$$$ $$$$$$$$$$$ $$$    $$$$ $$$$$$$$$$     
                                                



                           Another Fine Release Brought to you from - IMAGiNE                   
                                              http://imaginegroup.me/  
    
********************************************************************************************************************                                
              The Spy Next Door DVDRiP LiNE XViD READNFO - IMAGiNE
********************************************************************************************************************

Ripper ...........: IMAGiNE                                        IMDB Rating.......:5.3/10                             
Video Codec.......: XVID                                         Release Date......:09/02/10
Audio Codec.......:MP3                                           Theatre Date......:15/01/09
Audio Bitrate.....:128                                              Runtime.......:1h 30mn
Subtitles.........:NIL                                                 Language..........:ENGLISH
Resolution...... 640 x 352                                      IMDb URL..........:http://www.imdb.com/title/tt1273678/


[color=yellow]DETAILS:[/color]

Video
ID                               : 0
Format                           : MPEG-4 Visual
Format profile                   : Advanced Simple@L5
Format settings, BVOP            : Yes
Format settings, QPel            : No
Format settings, GMC             : No warppoints
Format settings, Matrix          : Default (H.263)
Muxing mode                      : Packed bitstream
Codec ID                         : XVID
Codec ID/Hint                    : XviD
Duration                         : 1h 30mn
Bit rate                         : 955 Kbps
Width                            : 640 pixels
Height                           : 352 pixels
Display aspect ratio             : 16:9
Frame rate                       : 25.000 fps
Resolution                       : 8 bits
Colorimetry                      : 4:2:0
Scan type                        : Progressive
Bits/(Pixel*Frame)               : 0.169
Stream size                      : 616 MiB (87%)
Writing library                  : XviD 1.2.1 (UTC 2008-12-04)

Audio
ID                               : 1
Format                           : MPEG Audio
Format version                   : Version 1
Format profile                   : Layer 3
Mode                             : Joint stereo
Format_Settings_ModeExtension    : MS Stereo
Codec ID                         : 55
Codec ID/Hint                    : MP3
Duration                         : 1h 30mn
Bit rate mode                    : Constant
Bit rate                         : 128 Kbps
Channel(s)                       : 2 channels
Sampling rate                    : 44.1 KHz
Stream size                      : 82.6 MiB (12%)
Alignment                        : Split accross interleaves
Interleave, duration             : 40 ms (1.00 video frame)
Interleave, preload duration     : 500 ms


[color=yellow]NOTES:[/color]

IMAGiNE bringing you another release.....
We were unsure how to tag this properly but the source we used was the The.Spy.Next.Door.2010.CN.DVDRip.XviD-XTM.
So now of course the audio wasn't english and there isn'y any studio audio.....so we went with dvdrip line readnfo..
Anyway the video was really nice but was subbed so we blurred the subs and then slightly tweaked the video just a touch and 
also resized it as the res was small.
Once done we had to sync it up which was a pain and also remove some audio as the video wasn't there .....anyway got there in the
end so enjoy.

[color=yellow]SCREENS:[/color] 
http://imagine.takagari.com/SPY%20NEXT%20DOOR%20DVDRIP%20LINE/vlcsnap-321669.png 
http://imagine.takagari.com/SPY%20NEXT%20DOOR%20DVDRIP%20LINE/vlcsnap-322139.png 
http://imagine.takagari.com/SPY%20NEXT%20DOOR%20DVDRIP%20LINE/vlcsnap-322450.png 
http://imagine.takagari.com/SPY%20NEXT%20DOOR%20DVDRIP%20LINE/vlcsnap-323097.png 
http://imagine.takagari.com/SPY%20NEXT%20DOOR%20DVDRIP%20LINE/vlcsnap-323394.png

[color=yellow]GREETS:[/color]

FLAWL3SS,ViSiON,DEViSE,FUSiON,STG,SecretMyth,BirdFlu,ELEKTRI4KA
And to all the other p2p grps past and present 

Special thanks to Python-Lair for the server :)
And special thanks to supreme-speeds.com for the ripbox :)

[COLOR=RED]Looking for these,syncers,cammer,silver supplier.....Have anything to offer????......
Contact us imaginegroup@hushmail.com[/COLOR]
